<svg width="64" height="64" viewBox="0 0 64 64" fill="none" xmlns="http://www.w3.org/2000/svg">
<path d="M0 8C0 3.58172 3.58172 0 8 0H41.9435C43.9118 0 45.811 0.725621 47.2778 2.03807L61.3344 14.615C63.0305 16.1326 64 18.3009 64 20.5769V56C64 60.4183 60.4183 64 56 64H8C3.58172 64 0 60.4183 0 56V8Z" fill="url(#paint0_linear_17_26)"/>
<path d="M0 8C0 3.58172 3.58172 0 8 0H41.9435C43.9118 0 45.811 0.725621 47.2778 2.03807L61.3344 14.615C63.0305 16.1326 64 18.3009 64 20.5769V56C64 60.4183 60.4183 64 56 64H8C3.58172 64 0 60.4183 0 56V8Z" fill="url(#paint1_linear_17_26)" fill-opacity="0.2"/>
<path d="M0 8C0 3.58172 3.58172 0 8 0H41.9435C43.9118 0 45.811 0.725621 47.2778 2.03807L61.3344 14.615C63.0305 16.1326 64 18.3009 64 20.5769V56C64 60.4183 60.4183 64 56 64H8C3.58172 64 0 60.4183 0 56V8Z" fill="url(#paint2_linear_17_26)" fill-opacity="0.2"/>
<path d="M0 8C0 3.58172 3.58172 0 8 0H41.9435C43.9118 0 45.811 0.725621 47.2778 2.03807L61.3344 14.615C63.0305 16.1326 64 18.3009 64 20.5769V56C64 60.4183 60.4183 64 56 64H8C3.58172 64 0 60.4183 0 56V8Z" fill="url(#paint3_linear_17_26)" fill-opacity="0.2"/>
<path d="M0 8C0 3.58172 3.58172 0 8 0H41.9435C43.9118 0 45.811 0.725621 47.2778 2.03807L61.3344 14.615C63.0305 16.1326 64 18.3009 64 20.5769V56C64 60.4183 60.4183 64 56 64H8C3.58172 64 0 60.4183 0 56V8Z" fill="url(#paint4_linear_17_26)"/>
<path d="M7.39205 57.4479C6.13338 57.4479 5.00272 57.1706 4.00005 56.6159C2.99738 56.0399 2.20805 55.1653 1.63205 53.9919C1.07738 52.7973 0.800049 51.2826 0.800049 49.4479C0.800049 47.6133 1.12005 46.0879 1.76005 44.8719C2.40005 43.6346 3.25338 42.7066 4.32005 42.0879C5.38672 41.4693 6.56005 41.1599 7.84005 41.1599C8.60805 41.1599 9.34405 41.2559 10.048 41.4479C10.752 41.6186 11.3707 41.8853 11.904 42.2479V41H16.064V54.7279C16.064 55.1333 16.1387 55.4746 16.288 55.7519C16.4374 56.0079 16.7041 56.1893 17.0881 56.2959L17.4401 56.3919V56.9999L12.128 57.3519L11.84 56.0079C11.264 56.4559 10.6027 56.8079 9.85605 57.0639C9.10938 57.3199 8.28805 57.4479 7.39205 57.4479ZM9.15205 55.9759C10.0694 55.9759 10.9334 55.6773 11.744 55.0799V43.1759C10.9547 42.6853 10.1014 42.4399 9.18405 42.4399C8.13872 42.4399 7.24272 42.9946 6.49605 44.1039C5.74938 45.1919 5.37605 46.9519 5.37605 49.3839C5.37605 51.8159 5.72805 53.5226 6.43205 54.5039C7.13605 55.4853 8.04272 55.9759 9.15205 55.9759Z" fill="white"/>
<path d="M17.6748 56.9999V56.3919L18.5388 56.1999C19.0081 56.0933 19.3815 55.9439 19.6588 55.7519C19.9575 55.5599 20.2455 55.2719 20.5228 54.8879L24.0108 50.0239L19.8828 43.4959C19.6695 43.1759 19.4561 42.9306 19.2428 42.7599C19.0508 42.5893 18.7735 42.4613 18.4108 42.3759L17.8668 42.2479V41.6399H25.8668V42.2479L25.3868 42.3759C25.0028 42.4613 24.7681 42.6319 24.6828 42.8879C24.6188 43.1226 24.6935 43.4106 24.9068 43.7519L27.3708 47.4959L29.9948 43.8479C30.2295 43.5066 30.3361 43.2079 30.3148 42.9519C30.3148 42.6959 30.1121 42.5253 29.7068 42.4399L29.0028 42.2479V41.6399H33.9308V42.2479L33.1628 42.4079C32.7148 42.5146 32.3628 42.6746 32.1068 42.8879C31.8508 43.0799 31.5841 43.3679 31.3068 43.7519L27.8828 48.2639L32.0748 54.7919C32.5655 55.5173 33.2481 55.9973 34.1228 56.2319L34.7628 56.3919V56.9999H26.1548V56.3919L26.6348 56.2959C27.0188 56.1893 27.2535 56.0079 27.3388 55.7519C27.4455 55.4959 27.3815 55.2079 27.1468 54.8879L24.5548 50.8559L21.7388 54.8559C21.5041 55.1973 21.4295 55.4959 21.5148 55.7519C21.6001 56.0079 21.8241 56.1786 22.1868 56.2639L22.7628 56.3919V56.9999H17.6748Z" fill="white"/>
<path d="M42.2208 57.4479C40.6421 57.4479 39.2555 57.1173 38.0608 56.4559C36.8875 55.7946 35.9701 54.8559 35.3088 53.6399C34.6688 52.4239 34.3488 50.9733 34.3488 49.2879C34.3488 47.6026 34.6901 46.1519 35.3728 44.9359C36.0768 43.7199 37.0155 42.7919 38.1888 42.1519C39.3835 41.4906 40.7275 41.1599 42.2208 41.1599C43.7141 41.1599 45.0475 41.4906 46.2208 42.1519C47.4155 42.7919 48.3541 43.7199 49.0368 44.9359C49.7408 46.1306 50.0928 47.5813 50.0928 49.2879C50.0928 50.9733 49.7621 52.4346 49.1008 53.6719C48.4608 54.8879 47.5541 55.8266 46.3808 56.4879C45.2075 57.1279 43.8208 57.4479 42.2208 57.4479ZM42.2208 56.5519C42.9888 56.5519 43.6075 56.3493 44.0768 55.9439C44.5675 55.5173 44.9195 54.7813 45.1328 53.7359C45.3461 52.6906 45.4528 51.2293 45.4528 49.3519C45.4528 47.4533 45.3461 45.9813 45.1328 44.9359C44.9195 43.8693 44.5675 43.1333 44.0768 42.7279C43.6075 42.3013 42.9888 42.0879 42.2208 42.0879C41.4528 42.0879 40.8341 42.3013 40.3648 42.7279C39.8955 43.1333 39.5435 43.8693 39.3088 44.9359C39.0955 45.9813 38.9888 47.4533 38.9888 49.3519C38.9888 51.2293 39.0955 52.6906 39.3088 53.7359C39.5435 54.7813 39.8955 55.5173 40.3648 55.9439C40.8341 56.3493 41.4528 56.5519 42.2208 56.5519Z" fill="white"/>
<path d="M50.6045 56.9999V56.3919L51.0845 56.2319C51.5112 56.1253 51.7992 55.9439 51.9485 55.6879C52.1192 55.4319 52.2045 55.0906 52.2045 54.6639V45.2879C52.1832 44.8186 52.0979 44.4666 51.9485 44.2319C51.7992 43.9759 51.5112 43.8053 51.0845 43.7199L50.6045 43.5919V43.0159L55.8205 41.1599L56.2045 41.5119L56.4925 44.3279V44.5519C56.8125 43.9546 57.2179 43.3999 57.7085 42.8879C58.1992 42.3759 58.7325 41.9599 59.3085 41.6399C59.8845 41.3199 60.4605 41.1599 61.0365 41.1599C61.8472 41.1599 62.4552 41.3733 62.8605 41.7999C63.2659 42.2266 63.4685 42.7706 63.4685 43.4319C63.4685 44.1573 63.2659 44.7119 62.8605 45.0959C62.4552 45.4586 61.9646 45.6399 61.3885 45.6399C60.5352 45.6399 59.7992 45.2559 59.1805 44.4879L59.1165 44.4239C58.9032 44.1679 58.6579 44.0293 58.3805 44.0079C58.1245 43.9653 57.8685 44.0933 57.6125 44.3919C57.3992 44.6053 57.1965 44.8613 57.0045 45.1599C56.8339 45.4373 56.6739 45.7679 56.5245 46.1519V54.5359C56.5245 54.9413 56.6099 55.2826 56.7805 55.5599C56.9512 55.8159 57.2392 55.9973 57.6445 56.1039L58.6045 56.3919V56.9999H50.6045Z" fill="white"/>
<path d="M11.904 39.5V34.088C11.904 33.64 11.8293 33.32 11.68 33.128C11.552 32.9147 11.2747 32.7547 10.848 32.648L10.208 32.52V31.912L15.776 30.536L16.192 30.824L16.064 35.336V39.5H11.904Z" fill="white"/>
<path d="M17.6748 57V56.392L18.5388 56.2C19.0081 56.0933 19.3814 55.944 19.6588 55.752C19.9574 55.56 20.2454 55.272 20.5228 54.888L24.0108 50.024L19.8828 43.496C19.6694 43.176 19.4561 42.9307 19.2428 42.76C19.0508 42.5893 18.7734 42.4613 18.4108 42.376L17.8668 42.248V41.64H25.8668V42.248L25.3868 42.376C25.0028 42.4613 24.7681 42.632 24.6828 42.888C24.6188 43.1227 24.6934 43.4107 24.9068 43.752L27.3708 47.496L29.9948 43.848C30.2294 43.5067 30.3361 43.208 30.3148 42.952C30.3148 42.696 30.1121 42.5253 29.7068 42.44L29.0028 42.248V41.64H33.9308V42.248L33.1628 42.408C32.7148 42.5147 32.3628 42.6747 32.1068 42.888C31.8508 43.08 31.5841 43.368 31.3068 43.752L27.8828 48.264L32.0748 54.792C32.5654 55.5173 33.2481 55.9973 34.1228 56.232L34.7628 56.392V57H26.1548V56.392L26.6348 56.296C27.0188 56.1893 27.2534 56.008 27.3388 55.752C27.4454 55.496 27.3814 55.208 27.1468 54.888L24.5548 50.856L21.7388 54.856C21.5041 55.1973 21.4294 55.496 21.5148 55.752C21.6001 56.008 21.8241 56.1787 22.1868 56.264L22.7628 56.392V57H17.6748Z" fill="white"/>
<path d="M42.2208 57.448C40.6421 57.448 39.2554 57.1173 38.0608 56.456C36.8874 55.7947 35.9701 54.856 35.3088 53.64C34.6688 52.424 34.3488 50.9733 34.3488 49.288C34.3488 47.6027 34.6901 46.152 35.3728 44.936C36.0768 43.72 37.0154 42.792 38.1888 42.152C39.3834 41.4907 40.7274 41.16 42.2208 41.16C43.7141 41.16 45.0474 41.4907 46.2208 42.152C47.4154 42.792 48.3541 43.72 49.0368 44.936C49.7408 46.1307 50.0928 47.5813 50.0928 49.288C50.0928 50.9733 49.7621 52.4347 49.1008 53.672C48.4608 54.888 47.5541 55.8267 46.3808 56.488C45.2074 57.128 43.8208 57.448 42.2208 57.448ZM42.2208 56.552C42.9888 56.552 43.6074 56.3493 44.0768 55.944C44.5674 55.5173 44.9194 54.7813 45.1328 53.736C45.3461 52.6907 45.4528 51.2293 45.4528 49.352C45.4528 47.4533 45.3461 45.9813 45.1328 44.936C44.9194 43.8693 44.5674 43.1333 44.0768 42.728C43.6074 42.3013 42.9888 42.088 42.2208 42.088C41.4528 42.088 40.8341 42.3013 40.3648 42.728C39.8954 43.1333 39.5434 43.8693 39.3088 44.936C39.0954 45.9813 38.9888 47.4533 38.9888 49.352C38.9888 51.2293 39.0954 52.6907 39.3088 53.736C39.5434 54.7813 39.8954 55.5173 40.3648 55.944C40.8341 56.3493 41.4528 56.552 42.2208 56.552Z" fill="white"/>
<path d="M50.6045 57V56.392L51.0845 56.232C51.5112 56.1253 51.7992 55.944 51.9485 55.688C52.1192 55.432 52.2045 55.0907 52.2045 54.664V45.288C52.1832 44.8187 52.0978 44.4667 51.9485 44.232C51.7992 43.976 51.5112 43.8053 51.0845 43.72L50.6045 43.592V43.016L55.8205 41.16L56.2045 41.512L56.4925 44.328V44.552C56.8125 43.9547 57.2178 43.4 57.7085 42.888C58.1992 42.376 58.7325 41.96 59.3085 41.64C59.8845 41.32 60.4605 41.16 61.0365 41.16C61.8472 41.16 62.4552 41.3733 62.8605 41.8C63.2658 42.2267 63.4685 42.7707 63.4685 43.432C63.4685 44.1573 63.2658 44.712 62.8605 45.096C62.4552 45.4587 61.9645 45.64 61.3885 45.64C60.5352 45.64 59.7992 45.256 59.1805 44.488L59.1165 44.424C58.9032 44.168 58.6578 44.0293 58.3805 44.008C58.1245 43.9653 57.8685 44.0933 57.6125 44.392C57.3992 44.6053 57.1965 44.8613 57.0045 45.16C56.8338 45.4373 56.6738 45.768 56.5245 46.152V54.536C56.5245 54.9413 56.6098 55.2827 56.7805 55.56C56.9512 55.816 57.2392 55.9973 57.6445 56.104L58.6045 56.392V57H50.6045Z" fill="white"/>
<path d="M14.0689 8.90801C12.9128 8.90784 11.8039 9.36144 10.9863 10.169L7.63845 13.477C7.22966 13.8809 7 14.4288 7 15C7 15.5712 7.22966 16.1191 7.63845 16.523L12.2625 21.092C12.6713 21.4959 13.2257 21.7228 13.8038 21.7228C14.382 21.7228 14.9364 21.4959 15.3452 21.092L16.8865 19.569C17.2953 19.1651 17.8498 18.9381 18.4279 18.9381C19.006 18.9381 19.5604 19.1651 19.9692 19.569L21.5106 21.092C21.9194 21.4959 22.4738 21.7228 23.0519 21.7228C23.63 21.7228 24.1845 21.4959 24.5933 21.092L26.1346 19.569C26.5434 19.1651 27.0978 18.9381 27.676 18.9381C28.2541 18.9381 28.8085 19.1651 29.2173 19.569L29.4824 19.8309C30.3001 20.6386 31.409 21.0922 32.5651 21.092H35.0744C36.4704 23.9461 38.8053 26.2475 41.6972 27.6199C44.589 28.9923 47.8666 29.3543 50.9938 28.6468C54.121 27.9393 56.9126 26.2041 58.9119 23.725C60.9113 21.246 62 18.1699 62 15C62 11.8301 60.9113 8.75401 58.9119 6.27498C56.9126 3.79595 54.121 2.06073 50.9938 1.3532C47.8666 0.645671 44.589 1.00771 41.6972 2.38009C38.8053 3.75247 36.4704 6.05394 35.0744 8.90801H14.0689Z" fill="#000205" fill-opacity="0.13"/>
<path d="M50.0255 15.7615C50.4511 16.1821 51.1412 16.1821 51.5668 15.7615C51.9925 15.3409 51.9925 14.6591 51.5668 14.2385C51.1412 13.8179 50.4511 13.8179 50.0255 14.2385C49.5999 14.6591 49.5999 15.3409 50.0255 15.7615Z" fill="white"/>
<path d="M14.0686 10.908H14.0689H35.0744C35.8383 10.908 36.5354 10.4729 36.871 9.78677C38.0664 7.34276 40.0685 5.36677 42.5547 4.18695C45.0412 3.00693 47.8614 2.69503 50.5525 3.3039C53.2433 3.91272 55.6408 5.40482 57.3551 7.53053C59.0692 9.65577 60 12.2893 60 15C60 17.7107 59.0692 20.3442 57.3551 22.4695C55.6407 24.5952 53.2433 26.0873 50.5525 26.6961C47.8614 27.305 45.0412 26.9931 42.5547 25.8131C40.0685 24.6332 38.0664 22.6572 36.871 20.2132C36.5354 19.5271 35.8383 19.092 35.0744 19.092H32.5651H32.5648C31.9315 19.0921 31.3289 18.8435 30.8881 18.4083C30.888 18.4082 30.8879 18.4081 30.8878 18.408L30.623 18.1463C29.8374 17.37 28.7768 16.9381 27.676 16.9381C26.5751 16.9381 25.5145 17.37 24.7289 18.1463L23.1875 19.6693C23.1556 19.7009 23.1073 19.7228 23.0519 19.7228C22.9966 19.7228 22.9482 19.7009 22.9163 19.6693L21.3749 18.1463C20.5893 17.37 19.5288 16.9381 18.4279 16.9381C17.327 16.9381 16.2665 17.37 15.4808 18.1463L13.9395 19.6693C13.9075 19.7009 13.8592 19.7228 13.8038 19.7228C13.7485 19.7228 13.7001 19.7009 13.6682 19.6693L9.04417 15.1003C9.01305 15.0696 9 15.033 9 15C9 14.967 9.01305 14.9304 9.04417 14.8997L12.3917 11.592C12.3918 11.5919 12.3919 11.5918 12.392 11.5917C12.8327 11.1565 13.4354 10.9079 14.0686 10.908ZM50.1611 14.3388C50.5145 13.9896 51.0778 13.9896 51.4312 14.3388C51.4374 14.3449 51.4435 14.3511 51.4494 14.3573C51.7919 14.715 51.7919 15.285 51.4494 15.6427C51.4435 15.6489 51.4374 15.6551 51.4312 15.6612C51.0778 16.0104 50.5145 16.0104 50.1611 15.6612C50.1549 15.6551 50.1489 15.6489 50.1429 15.6427C49.8004 15.285 49.8004 14.715 50.1429 14.3573C50.1489 14.3511 50.1549 14.3449 50.1611 14.3388ZM48.6198 17.1842C49.8245 18.3745 51.7679 18.3745 52.9726 17.1842C54.1906 15.9807 54.1906 14.0193 52.9726 12.8158C51.7679 11.6255 49.8245 11.6255 48.6198 12.8158C47.4018 14.0193 47.4018 15.9807 48.6198 17.1842Z" stroke="url(#paint5_linear_17_26)" stroke-width="4" stroke-linecap="round" stroke-linejoin="round"/>
<defs>
<linearGradient id="paint0_linear_17_26" x1="5.5" y1="2.5" x2="60.5" y2="62.5" gradientUnits="userSpaceOnUse">
<stop stop-color="#6600FE"/>
<stop offset="1" stop-color="#FF3500"/>
</linearGradient>
<linearGradient id="paint1_linear_17_26" x1="8" y1="58.5" x2="56" y2="23.5" gradientUnits="userSpaceOnUse">
<stop stop-color="#23074D"/>
<stop offset="1" stop-color="#FF3500"/>
</linearGradient>
<linearGradient id="paint2_linear_17_26" x1="36.5" y1="44.5" x2="34" y2="5.5" gradientUnits="userSpaceOnUse">
<stop stop-color="#23074D"/>
<stop offset="0.721487" stop-color="#EE0034"/>
<stop offset="1" stop-color="#FF3500"/>
</linearGradient>
<linearGradient id="paint3_linear_17_26" x1="56" y1="43.5" x2="54" y2="12" gradientUnits="userSpaceOnUse">
<stop stop-color="#0021C6"/>
<stop offset="1" stop-color="#FF3500"/>
</linearGradient>
<linearGradient id="paint4_linear_17_26" x1="11.5" y1="5" x2="51" y2="60.5" gradientUnits="userSpaceOnUse">
<stop stop-color="#007FFF"/>
<stop offset="0.295826" stop-color="#CC5333" stop-opacity="0"/>
</linearGradient>
<linearGradient id="paint5_linear_17_26" x1="34.5" y1="1" x2="34.5" y2="29" gradientUnits="userSpaceOnUse">
<stop stop-color="#FFA600"/>
<stop offset="1" stop-color="#FF2529"/>
</linearGradient>
</defs>
</svg>
