<svg width="506" height="255" viewBox="0 0 506 255" fill="none" xmlns="http://www.w3.org/2000/svg">
<path d="M282.037 168.903L323.759 189.37C328.204 191.551 333.407 191.551 337.852 189.37L372.527 172.36C376.972 170.179 382.176 170.179 386.621 172.36L421.296 189.37C425.741 191.551 430.945 191.551 435.39 189.37L477.112 168.903" stroke="#0336AF" stroke-width="7"/>
<path d="M275.024 157.256C270.728 157.256 266.929 156.554 263.627 155.152C260.354 153.72 257.783 151.557 255.913 148.664C254.042 145.771 253.107 142.089 253.107 137.619C253.107 133.937 253.736 130.795 254.992 128.195C256.249 125.565 258.002 123.417 260.252 121.751C262.502 120.085 265.117 118.814 268.098 117.938C271.108 117.061 274.352 116.491 277.829 116.228C281.599 115.936 284.623 115.585 286.902 115.176C289.211 114.738 290.876 114.139 291.899 113.379C292.922 112.59 293.433 111.553 293.433 110.267V110.092C293.433 108.338 292.761 106.994 291.417 106.059C290.073 105.124 288.349 104.656 286.245 104.656C283.936 104.656 282.051 105.168 280.59 106.191C279.158 107.184 278.296 108.718 278.004 110.793H255.737C256.029 106.702 257.33 102.932 259.638 99.4841C261.976 96.0068 265.38 93.2307 269.851 91.1559C274.322 89.052 279.904 88 286.595 88C291.417 88 295.742 88.5698 299.57 89.7095C303.398 90.8199 306.656 92.3833 309.345 94.3996C312.033 96.3866 314.078 98.7244 315.481 101.413C316.913 104.072 317.629 106.965 317.629 110.092V156.204H295.011V146.736H294.485C293.141 149.249 291.505 151.28 289.576 152.828C287.677 154.377 285.5 155.502 283.045 156.204C280.62 156.905 277.946 157.256 275.024 157.256ZM282.913 142.002C284.754 142.002 286.479 141.622 288.086 140.862C289.722 140.102 291.052 139.007 292.074 137.575C293.097 136.143 293.609 134.404 293.609 132.359V126.748C292.966 127.011 292.279 127.259 291.549 127.493C290.847 127.727 290.087 127.946 289.269 128.151C288.48 128.355 287.633 128.545 286.727 128.72C285.85 128.896 284.93 129.057 283.965 129.203C282.095 129.495 280.561 129.977 279.363 130.649C278.194 131.292 277.318 132.096 276.733 133.06C276.178 133.995 275.9 135.047 275.9 136.216C275.9 138.086 276.558 139.518 277.873 140.511C279.188 141.505 280.868 142.002 282.913 142.002Z" fill="#0037BA"/>
<path d="M346.351 88.8766L356.17 109.741L366.514 88.8766H390.534L372.475 122.54L391.411 156.204H367.566L356.17 134.813L345.124 156.204H320.928L340.039 122.54L322.156 88.8766H346.351Z" fill="#0037BA"/>
<path d="M420.642 157.431C413.337 157.431 407.083 155.984 401.882 153.091C396.68 150.169 392.692 146.107 389.915 140.906C387.139 135.675 385.751 129.612 385.751 122.715C385.751 115.819 387.139 109.77 389.915 104.569C392.692 99.338 396.68 95.2762 401.882 92.3833C407.083 89.4611 413.337 88 420.642 88C427.948 88 434.201 89.4611 439.402 92.3833C444.604 95.2762 448.593 99.338 451.369 104.569C454.145 109.77 455.533 115.819 455.533 122.715C455.533 129.612 454.145 135.675 451.369 140.906C448.593 146.107 444.604 150.169 439.402 153.091C434.201 155.984 427.948 157.431 420.642 157.431ZM420.817 139.547C422.863 139.547 424.631 138.86 426.121 137.487C427.612 136.114 428.766 134.156 429.584 131.613C430.402 129.071 430.811 126.047 430.811 122.54C430.811 119.004 430.402 115.98 429.584 113.467C428.766 110.924 427.612 108.967 426.121 107.593C424.631 106.22 422.863 105.533 420.817 105.533C418.655 105.533 416.799 106.22 415.251 107.593C413.702 108.967 412.518 110.924 411.7 113.467C410.882 115.98 410.473 119.004 410.473 122.54C410.473 126.047 410.882 129.071 411.7 131.613C412.518 134.156 413.702 136.114 415.251 137.487C416.799 138.86 418.655 139.547 420.817 139.547Z" fill="#0037BA"/>
<path d="M460.414 156.204V88.8766H483.908V101.676H484.61C485.837 96.9419 487.78 93.4791 490.439 91.2874C493.128 89.0958 496.269 88 499.863 88C500.915 88 501.953 88.0877 502.976 88.263C504.028 88.4091 505.036 88.6283 506 88.9205V109.566C504.802 109.157 503.326 108.85 501.573 108.645C499.82 108.441 498.315 108.338 497.058 108.338C494.691 108.338 492.558 108.879 490.659 109.96C488.788 111.012 487.313 112.502 486.231 114.431C485.15 116.33 484.61 118.566 484.61 121.137V156.204H460.414Z" fill="#0037BA"/>
<path d="M176.173 208.532C131.395 253.31 52.5838 247.655 8.18696 202.5C-16.2086 177.688 21.6892 161.827 21.6892 127.353C21.6892 92.879 -9.60645 70.5753 8.18696 53C53.2519 8.48752 131.458 1.45869 176.248 46.2483C221.021 91.0219 220.946 163.759 176.173 208.532Z" fill="#8FB0FF"/>
<path d="M201.959 217.549C152.205 267.303 71.0202 267.678 21.6892 217.505C-5.41767 189.935 44.6041 165.653 44.6041 127.348C44.6041 89.0427 1.91824 56.7192 21.6891 37.1907C71.7625 -12.2688 152.275 -12.5378 202.042 37.2295C251.792 86.979 251.708 167.8 201.959 217.549Z" fill="#054CF5"/>
</svg>
